<svg height="24" viewBox="0 0 24 24" fill="none" xmlns="http://www.w3.org/2000/svg">
<path d="M8.983 24C9.18571 24.0033 9.38464 23.9449 9.5534 23.8326C9.72217 23.7202 9.85281 23.5593 9.928 23.371L13.769 13.77L23.371 9.92899C23.5567 9.85479 23.7159 9.72661 23.8281 9.561C23.9402 9.3954 24.0001 9.19998 24 8.99999L24 8.98398C23.9968 8.78145 23.9322 8.58466 23.8147 8.41966C23.6972 8.25466 23.5324 8.12924 23.342 8.05999L1.342 0.0599851C1.16303 -0.00550286 0.969064 -0.0184831 0.782959 0.0225706C0.596854 0.0636242 0.426356 0.157003 0.291543 0.291711C0.156731 0.426418 0.0632184 0.596843 0.0220197 0.782916C-0.019179 0.968989 -0.00634851 1.16296 0.0589999 1.34198L8.059 23.342C8.12843 23.5324 8.25404 23.6973 8.41921 23.8148C8.58438 23.9323 8.78133 23.9969 8.984 24L8.983 24Z" fill="white"/>
</svg>
