<svg height="24" viewBox="0 0 42 36" fill="none" xmlns="http://www.w3.org/2000/svg">
<path d="M21 0.333336C28.3943 0.333336 32.5873 5.22867 33.1963 11.1367H33.383C34.5133 11.1348 35.633 11.3558 36.6779 11.7868C37.7228 12.2179 38.6726 12.8507 39.4728 13.649C40.2731 14.4473 40.9082 15.3955 41.3418 16.4394C41.7754 17.4832 41.9991 18.6023 42 19.7327C41.9988 20.8628 41.7749 21.9817 41.3411 23.0253C40.9074 24.0689 40.2722 25.0168 39.472 25.8148C38.6718 26.6129 37.7221 27.2455 36.6774 27.6764C35.6326 28.1073 34.5132 28.3282 33.383 28.3263H32.025L28.3337 34.4723C28.1118 34.856 27.7526 35.1412 27.3285 35.2704C26.9045 35.3995 26.4473 35.3629 26.0492 35.168C25.6511 34.9731 25.3418 34.6344 25.1838 34.2203C25.0257 33.8062 25.0307 33.3476 25.1977 32.937L25.3027 32.7223L27.9837 28.3263H22.9997L19.3083 34.4723C19.0864 34.856 18.7272 35.1412 18.3032 35.2704C17.8792 35.3995 17.422 35.3629 17.0239 35.168C16.6258 34.9731 16.3165 34.6344 16.1584 34.2203C16.0004 33.8062 16.0054 33.3476 16.1723 32.937L16.2773 32.7223L18.9583 28.3263H13.972L10.2807 34.47C10.0568 34.8497 9.69789 35.1309 9.27568 35.2574C8.85348 35.384 8.39907 35.3466 8.00326 35.1526C7.60746 34.9587 7.2994 34.6226 7.14066 34.2114C6.98192 33.8002 6.98418 33.3443 7.147 32.9347L7.24967 32.72L9.93067 28.324H8.617C7.48684 28.3258 6.3674 28.105 5.32263 27.6741C4.27786 27.2431 3.32823 26.6106 2.52801 25.8125C1.72778 25.0144 1.09265 24.0665 0.658881 23.0229C0.225116 21.9793 0.0012246 20.8605 0 19.7303C0.00153105 18.6006 0.225571 17.4822 0.659327 16.439C1.09308 15.3958 1.72806 14.4483 2.52801 13.6505C3.32795 12.8527 4.2772 12.2203 5.32155 11.7894C6.3659 11.3585 7.4849 11.1375 8.61467 11.139H8.80133C9.41733 5.18667 13.608 0.333336 21 0.333336ZM21 3.82867C16.1677 3.82867 11.9537 7.64133 11.9537 12.9053C11.9537 13.7383 11.2093 14.3917 10.3577 14.3917H8.74767C5.80533 14.3917 3.41833 16.7297 3.41833 19.6113C3.41833 22.493 5.80533 24.8287 8.74767 24.8287H33.2547C36.1947 24.8287 38.5817 22.493 38.5817 19.6113C38.5817 16.7297 36.1947 14.3917 33.2523 14.3917H31.6423C30.7907 14.3917 30.0463 13.7383 30.0463 12.9053C30.0463 7.57367 25.8323 3.82867 21 3.82867V3.82867Z" fill="white"/>
</svg>
