<svg height="24" viewBox="0 0 48 45" fill="none" xmlns="http://www.w3.org/2000/svg">
<path d="M26.3356 10.0397C33.73 10.0397 37.923 14.935 38.5343 20.843H38.721C39.8507 20.8418 40.9697 21.0631 42.0139 21.4943C43.0581 21.9255 44.0072 22.5582 44.8069 23.3561C45.6067 24.1541 46.2414 25.1018 46.6749 26.1451C47.1083 27.1884 47.3321 28.3069 47.3333 29.4367C47.3321 30.5666 47.1083 31.6853 46.6746 32.7287C46.241 33.7722 45.6061 34.72 44.8061 35.518C44.0061 36.316 43.0568 36.9486 42.0123 37.3797C40.9678 37.8108 39.8486 38.0319 38.7186 38.0303H37.2346L33.6506 44.125C33.4287 44.5087 33.0695 44.7939 32.6455 44.923C32.2215 45.0522 31.7643 45.0156 31.3662 44.8207C30.9681 44.6258 30.6588 44.2871 30.5008 43.873C30.3427 43.4589 30.3477 43.0002 30.5146 42.5897L30.6196 42.375L33.1933 38.028H28.2093L24.6253 44.125C24.4034 44.5087 24.0442 44.7939 23.6202 44.923C23.1962 45.0522 22.739 45.0156 22.3409 44.8207C21.9428 44.6258 21.6335 44.2871 21.4754 43.873C21.3174 43.4589 21.3223 43.0002 21.4893 42.5897L21.5943 42.375L24.168 38.028H19.1816L15.6 44.125C15.3781 44.5087 15.0189 44.7939 14.5949 44.923C14.1708 45.0522 13.7136 45.0156 13.3155 44.8207C12.9174 44.6258 12.6081 44.2871 12.4501 43.873C12.292 43.4589 12.297 43.0002 12.464 42.5897L12.569 42.375L15.1403 38.028H13.9503C11.669 38.0305 9.48021 37.1268 7.86515 35.5157C6.25009 33.9045 5.34106 31.7179 5.33797 29.4367C5.3395 28.3069 5.56354 27.1885 5.9973 26.1453C6.43105 25.1021 7.06603 24.1546 7.86598 23.3568C8.66592 22.559 9.61517 21.9266 10.6595 21.4957C11.7039 21.0648 12.8229 20.8438 13.9526 20.8453H14.1393C14.753 14.8953 18.9436 10.042 26.3356 10.042V10.0397ZM26.3356 13.535C21.5033 13.535 17.2893 17.3453 17.2893 22.6117C17.2893 23.4447 16.545 24.098 15.6933 24.098H14.0833C11.141 24.098 8.75397 26.436 8.75397 29.3177C8.75397 32.1993 11.141 34.535 14.0833 34.535H38.5903C41.5303 34.535 43.9173 32.1993 43.9173 29.3177C43.9173 26.4337 41.5303 24.098 38.588 24.098H36.978C36.1263 24.098 35.382 23.4447 35.382 22.6093C35.382 17.2777 31.168 13.535 26.3356 13.535V13.535ZM11.372 0.689985C13.2313 0.78956 15.0407 1.32766 16.6523 2.26032C19.0202 3.62253 20.8419 5.76426 21.8066 8.31999C20.64 8.64665 19.5596 9.10632 18.5726 9.68265C18.1538 8.51181 17.4771 7.45012 16.5926 6.57611C15.7081 5.70209 14.6384 5.03812 13.4626 4.63332C13.836 7.78565 13.3506 10.497 12.009 13.0567L11.7336 13.556C10.4036 15.8333 8.3923 17.539 5.39164 18.932C6.13466 19.5492 6.97843 20.0339 7.88597 20.3647C6.83477 21.0701 5.91484 21.9537 5.16764 22.9757L4.80597 22.7773C3.28167 21.8998 1.97268 20.6929 0.974638 19.2447C0.821912 19.0238 0.722063 18.7707 0.68282 18.5051C0.643578 18.2394 0.665994 17.9683 0.748334 17.7127C0.830674 17.4571 0.97073 17.2239 1.15766 17.0311C1.34459 16.8384 1.57337 16.6912 1.8263 16.601C5.65997 15.229 7.72497 13.6843 8.90564 11.4327C10.196 8.97098 10.434 6.35999 9.57764 2.85065C9.51271 2.58512 9.51088 2.30807 9.57231 2.04171C9.63374 1.77534 9.75672 1.52707 9.93138 1.3168C10.106 1.10652 10.3275 0.940085 10.5781 0.83083C10.8287 0.721575 11.1014 0.672539 11.3743 0.687651L11.372 0.689985Z" fill="white"/>
</svg>
