<svg height="24" viewBox="0 0 48 45" fill="none" xmlns="http://www.w3.org/2000/svg">
<path d="M26.338 10.0233C33.7323 10.0233 37.9253 14.9163 38.5367 20.8267H38.7233C39.8533 20.8251 40.9725 21.0462 42.017 21.4773C43.0615 21.9083 44.0108 22.541 44.8108 23.339C45.6108 24.137 46.2457 25.0848 46.6794 26.1283C47.113 27.1717 47.3368 28.2904 47.338 29.4203C47.3365 30.5501 47.1124 31.6685 46.6787 32.7117C46.2449 33.7548 45.6099 34.7024 44.81 35.5001C44.0101 36.2979 43.0608 36.9303 42.0165 37.3612C40.9721 37.7922 39.8531 38.0132 38.7233 38.0116L37.2767 38.0093L33.66 44.132C33.4381 44.5157 33.0789 44.8009 32.6549 44.93C32.2309 45.0591 31.7737 45.0226 31.3756 44.8277C30.9775 44.6328 30.6682 44.2941 30.5101 43.88C30.3521 43.4659 30.357 43.0072 30.524 42.5966L30.629 42.382L33.2377 38.0093H28.2537L24.6347 44.132C24.4128 44.5157 24.0536 44.8009 23.6296 44.93C23.2055 45.0591 22.7483 45.0226 22.3502 44.8277C21.9522 44.6328 21.6429 44.2941 21.4848 43.88C21.3267 43.4659 21.3317 43.0072 21.4987 42.5966L21.6037 42.382L24.2123 38.0093H19.2283L15.6093 44.132C15.3875 44.5157 15.0282 44.8009 14.6042 44.93C14.1802 45.0591 13.723 45.0226 13.3249 44.8277C12.9268 44.6328 12.6175 44.2941 12.4595 43.88C12.3014 43.4659 12.3064 43.0072 12.4733 42.5966L12.5783 42.382L15.1847 38.0093L13.955 38.0116C12.8252 38.0132 11.7062 37.7922 10.6619 37.3612C9.61754 36.9303 8.6683 36.2979 7.86835 35.5001C7.0684 34.7024 6.43343 33.7548 5.99967 32.7117C5.56591 31.6685 5.34187 30.5501 5.34034 29.4203C5.34157 28.2904 5.56538 27.1717 5.999 26.1283C6.43262 25.0848 7.06755 24.137 7.86753 23.339C8.6675 22.541 9.61685 21.9083 10.6614 21.4773C11.7059 21.0462 12.8251 20.8251 13.955 20.8267H14.1417C14.7553 14.8767 18.946 10.0233 26.338 10.0233V10.0233ZM26.338 13.5187C21.5057 13.5187 17.2917 17.329 17.2917 22.593C17.2917 23.426 16.5473 24.0816 15.6957 24.0816H14.0857C11.1433 24.0816 8.75634 26.4173 8.75634 29.299C8.75634 32.1806 11.1433 34.5186 14.0857 34.5186H38.5927C41.5327 34.5186 43.9197 32.1806 43.9197 29.299C43.9197 26.4173 41.535 24.0816 38.5927 24.0816H36.9803C36.1287 24.0816 35.3843 23.4283 35.3843 22.593C35.3843 17.2613 31.1703 13.5163 26.338 13.5163V13.5187ZM6.19201 19.7207C6.35342 20.1114 6.36791 20.5474 6.2328 20.948C6.09769 21.3486 5.82211 21.6868 5.45701 21.9L5.24468 22.0073L3.08401 22.901C2.67448 23.0702 2.21603 23.0777 1.80116 22.9221C1.38629 22.7665 1.0459 22.4592 0.84869 22.0625C0.651478 21.6657 0.612127 21.2088 0.738578 20.7842C0.865029 20.3595 1.14787 19.9986 1.53001 19.7743L1.74468 19.667L3.90534 18.7733C4.11769 18.6854 4.34528 18.6401 4.57513 18.6401C4.80497 18.6401 5.03256 18.6854 5.2449 18.7733C5.45725 18.8613 5.65018 18.9902 5.81269 19.1528C5.97519 19.3153 6.10409 19.5083 6.19201 19.7207V19.7207ZM21.3283 8.44132L20.927 8.57665C19.7135 9.002 18.5665 9.5975 17.5203 10.3453C16.3969 9.9804 15.1878 9.97364 14.0604 10.326C12.9329 10.6783 11.9428 11.3724 11.2271 12.3121C10.5114 13.2518 10.1054 14.3907 10.0653 15.5712C10.0252 16.7517 10.353 17.9156 11.0033 18.9017C9.86613 19.2211 8.78927 19.7256 7.81601 20.395C6.74657 18.5568 6.3471 16.4049 6.68558 14.3054C7.02407 12.2059 8.07958 10.2886 9.67251 8.87969C11.2654 7.47079 13.2974 6.65737 15.4225 6.57787C17.5476 6.49837 19.6346 7.1577 21.3283 8.44365V8.44132ZM2.86234 8.51365L3.10968 8.59532L5.27034 9.49132C5.67663 9.66163 6.00374 9.97891 6.18636 10.3798C6.36898 10.7807 6.39367 11.2358 6.25551 11.6541C6.11735 12.0724 5.8265 12.4232 5.44102 12.6365C5.05555 12.8498 4.60381 12.9098 4.17601 12.8047L3.93334 12.7277L1.77268 11.8317C1.36746 11.6608 1.04141 11.3437 0.859395 10.9434C0.67738 10.5431 0.652745 10.0889 0.790392 9.6713C0.92804 9.25365 1.21788 8.90313 1.60224 8.68949C1.9866 8.47584 2.4373 8.41473 2.86468 8.51832L2.86234 8.51365ZM11.764 1.54632L11.8713 1.75865L12.765 3.92165C12.9318 4.33082 12.9376 4.78792 12.7813 5.2012C12.625 5.61448 12.3182 5.95334 11.9224 6.14975C11.5266 6.34617 11.0712 6.3856 10.6475 6.26014C10.2239 6.13467 9.86334 5.85359 9.63834 5.47332L9.53101 5.26099L8.63734 3.09799C8.47057 2.68882 8.46475 2.23172 8.62104 1.81844C8.77733 1.40516 9.08417 1.0663 9.47996 0.869885C9.87575 0.673468 10.3312 0.634036 10.7548 0.759505C11.1785 0.884973 11.539 1.16605 11.764 1.54632V1.54632ZM21.9233 0.80432C22.3103 0.965057 22.6267 1.25927 22.8151 1.6335C23.0035 2.00772 23.0513 2.43712 22.95 2.84365L22.8683 3.08865L21.9747 5.25165C21.8044 5.65794 21.4871 5.98505 21.0862 6.16767C20.6853 6.35029 20.2302 6.37498 19.8119 6.23682C19.3936 6.09866 19.0428 5.80781 18.8295 5.42233C18.6162 5.03686 18.5562 4.58512 18.6613 4.15732L18.7407 3.91232L19.6367 1.74932C19.8147 1.32085 20.1556 0.980615 20.5844 0.803407C21.0132 0.626199 21.4948 0.626528 21.9233 0.80432Z" fill="white"/>
</svg>
