<svg height="24" viewBox="0 0 48 47" fill="none" xmlns="http://www.w3.org/2000/svg">
<path d="M21.0833 42.6737C21.5474 42.6737 21.9926 42.858 22.3208 43.1862C22.6489 43.5144 22.8333 43.9595 22.8333 44.4237C22.8333 44.8878 22.6489 45.3329 22.3208 45.6611C21.9926 45.9893 21.5474 46.1737 21.0833 46.1737C20.6192 46.1737 20.1741 45.9893 19.8459 45.6611C19.5177 45.3329 19.3333 44.8878 19.3333 44.4237C19.3333 43.9595 19.5177 43.5144 19.8459 43.1862C20.1741 42.858 20.6192 42.6737 21.0833 42.6737ZM31.5833 42.6737C32.0474 42.6737 32.4926 42.858 32.8208 43.1862C33.1489 43.5144 33.3333 43.9595 33.3333 44.4237C33.3333 44.8878 33.1489 45.3329 32.8208 45.6611C32.4926 45.9893 32.0474 46.1737 31.5833 46.1737C31.1192 46.1737 30.6741 45.9893 30.3459 45.6611C30.0177 45.3329 29.8333 44.8878 29.8333 44.4237C29.8333 43.9595 30.0177 43.5144 30.3459 43.1862C30.6741 42.858 31.1192 42.6737 31.5833 42.6737ZM15.8333 40.3403C16.2974 40.3403 16.7426 40.5247 17.0708 40.8529C17.3989 41.1811 17.5833 41.6262 17.5833 42.0903C17.5833 42.5544 17.3989 42.9996 17.0708 43.3278C16.7426 43.6559 16.2974 43.8403 15.8333 43.8403C15.3692 43.8403 14.9241 43.6559 14.5959 43.3278C14.2677 42.9996 14.0833 42.5544 14.0833 42.0903C14.0833 41.6262 14.2677 41.1811 14.5959 40.8529C14.9241 40.5247 15.3692 40.3403 15.8333 40.3403ZM26.3333 40.3403C26.7974 40.3403 27.2426 40.5247 27.5708 40.8529C27.8989 41.1811 28.0833 41.6262 28.0833 42.0903C28.0833 42.5544 27.8989 42.9996 27.5708 43.3278C27.2426 43.6559 26.7974 43.8403 26.3333 43.8403C25.8692 43.8403 25.4241 43.6559 25.0959 43.3278C24.7677 42.9996 24.5833 42.5544 24.5833 42.0903C24.5833 41.6262 24.7677 41.1811 25.0959 40.8529C25.4241 40.5247 25.8692 40.3403 26.3333 40.3403ZM36.8333 40.3403C37.2974 40.3403 37.7426 40.5247 38.0708 40.8529C38.3989 41.1811 38.5833 41.6262 38.5833 42.0903C38.5833 42.5544 38.3989 42.9996 38.0708 43.3278C37.7426 43.6559 37.2974 43.8403 36.8333 43.8403C36.3692 43.8403 35.9241 43.6559 35.5959 43.3278C35.2677 42.9996 35.0833 42.5544 35.0833 42.0903C35.0833 41.6262 35.2677 41.1811 35.5959 40.8529C35.9241 40.5247 36.3692 40.3403 36.8333 40.3403V40.3403ZM26.3357 10.0397C33.73 10.0397 37.923 14.935 38.5343 20.843H38.721C39.8507 20.8418 40.9697 21.0631 42.0139 21.4943C43.0582 21.9255 44.0072 22.5581 44.807 23.3561C45.6067 24.1541 46.2414 25.1018 46.6749 26.1451C47.1084 27.1884 47.3321 28.3069 47.3333 29.4367C47.3321 30.5666 47.1083 31.6853 46.6747 32.7287C46.241 33.7722 45.6061 34.72 44.8061 35.518C44.0062 36.316 43.0568 36.9486 42.0123 37.3797C40.9678 37.8108 39.8486 38.0319 38.7187 38.0303H13.9527C12.8227 38.0319 11.7035 37.8108 10.659 37.3797C9.6145 36.9486 8.66515 36.316 7.86517 35.518C7.06519 34.72 6.43026 33.7722 5.99664 32.7287C5.56302 31.6853 5.33921 30.5666 5.33799 29.4367C5.33952 28.3069 5.56356 27.1885 5.99731 26.1453C6.43107 25.1021 7.06605 24.1546 7.86599 23.3568C8.66594 22.559 9.61519 21.9266 10.6595 21.4957C11.7039 21.0648 12.8229 20.8438 13.9527 20.8453H14.1393C14.753 14.8953 18.9437 10.042 26.3357 10.042V10.0397ZM26.3357 13.535C21.5033 13.535 17.2893 17.3453 17.2893 22.6117C17.2893 23.4447 16.545 24.098 15.6933 24.098H14.0833C11.141 24.098 8.75399 26.436 8.75399 29.3177C8.75399 32.1993 11.141 34.535 14.0833 34.535H38.5903C41.5303 34.535 43.9173 32.1993 43.9173 29.3177C43.9173 26.4337 41.5303 24.098 38.588 24.098H36.978C36.1263 24.098 35.382 23.4447 35.382 22.6093C35.382 17.2777 31.168 13.535 26.3357 13.535V13.535ZM11.372 0.689985C13.2313 0.78956 15.0407 1.32766 16.6523 2.26032C19.0202 3.62253 20.8419 5.76426 21.8067 8.31999C20.64 8.64665 19.5597 9.10632 18.5727 9.68265C18.1538 8.51181 17.4771 7.45012 16.5926 6.57611C15.7081 5.70209 14.6384 5.03812 13.4627 4.63332C13.836 7.78565 13.3507 10.497 12.009 13.0567L11.7337 13.556C10.4037 15.8333 8.39232 17.539 5.39165 18.932C6.13467 19.5492 6.97845 20.0339 7.88599 20.3647C6.83479 21.0701 5.91486 21.9537 5.16765 22.9757L4.80599 22.7773C3.28169 21.8998 1.97269 20.6929 0.974653 19.2447C0.821927 19.0238 0.722078 18.7707 0.682835 18.5051C0.643593 18.2394 0.666009 17.9683 0.748349 17.7127C0.83069 17.4571 0.970745 17.2239 1.15767 17.0311C1.3446 16.8384 1.57339 16.6912 1.82632 16.601C5.65999 15.229 7.72499 13.6843 8.90565 11.4327C10.196 8.97098 10.434 6.35998 9.57765 2.85065C9.51272 2.58512 9.5109 2.30807 9.57233 2.04171C9.63376 1.77534 9.75673 1.52707 9.9314 1.3168C10.1061 1.10652 10.3276 0.940084 10.5781 0.83083C10.8287 0.721575 11.1014 0.672539 11.3743 0.687651L11.372 0.689985Z" fill="white"/>
</svg>
