<svg height="24" viewBox="0 0 42 37" fill="none" xmlns="http://www.w3.org/2000/svg">
<path d="M15.75 33.3523C16.2141 33.3523 16.6592 33.5367 16.9874 33.8649C17.3156 34.1931 17.5 34.6382 17.5 35.1023C17.5 35.5665 17.3156 36.0116 16.9874 36.3398C16.6592 36.668 16.2141 36.8523 15.75 36.8523C15.2859 36.8523 14.8408 36.668 14.5126 36.3398C14.1844 36.0116 14 35.5665 14 35.1023C14 34.6382 14.1844 34.1931 14.5126 33.8649C14.8408 33.5367 15.2859 33.3523 15.75 33.3523V33.3523ZM26.25 33.3523C26.7141 33.3523 27.1592 33.5367 27.4874 33.8649C27.8156 34.1931 28 34.6382 28 35.1023C28 35.5665 27.8156 36.0116 27.4874 36.3398C27.1592 36.668 26.7141 36.8523 26.25 36.8523C25.7859 36.8523 25.3408 36.668 25.0126 36.3398C24.6844 36.0116 24.5 35.5665 24.5 35.1023C24.5 34.6382 24.6844 34.1931 25.0126 33.8649C25.3408 33.5367 25.7859 33.3523 26.25 33.3523V33.3523ZM10.5 31.019C10.9641 31.019 11.4092 31.2034 11.7374 31.5316C12.0656 31.8598 12.25 32.3049 12.25 32.769C12.25 33.2331 12.0656 33.6782 11.7374 34.0064C11.4092 34.3346 10.9641 34.519 10.5 34.519C10.0359 34.519 9.59075 34.3346 9.26256 34.0064C8.93437 33.6782 8.75 33.2331 8.75 32.769C8.75 32.3049 8.93437 31.8598 9.26256 31.5316C9.59075 31.2034 10.0359 31.019 10.5 31.019ZM21 31.019C21.4641 31.019 21.9092 31.2034 22.2374 31.5316C22.5656 31.8598 22.75 32.3049 22.75 32.769C22.75 33.2331 22.5656 33.6782 22.2374 34.0064C21.9092 34.3346 21.4641 34.519 21 34.519C20.5359 34.519 20.0908 34.3346 19.7626 34.0064C19.4344 33.6782 19.25 33.2331 19.25 32.769C19.25 32.3049 19.4344 31.8598 19.7626 31.5316C20.0908 31.2034 20.5359 31.019 21 31.019ZM31.5 31.019C31.9641 31.019 32.4092 31.2034 32.7374 31.5316C33.0656 31.8598 33.25 32.3049 33.25 32.769C33.25 33.2331 33.0656 33.6782 32.7374 34.0064C32.4092 34.3346 31.9641 34.519 31.5 34.519C31.0359 34.519 30.5908 34.3346 30.2626 34.0064C29.9344 33.6782 29.75 33.2331 29.75 32.769C29.75 32.3049 29.9344 31.8598 30.2626 31.5316C30.5908 31.2034 31.0359 31.019 31.5 31.019V31.019ZM21 0.335667C28.3943 0.335667 32.5873 5.22867 33.1963 11.139H33.383C34.513 11.1372 35.6322 11.3579 36.6768 11.7887C37.7214 12.2195 38.671 12.8519 39.4712 13.6497C40.2714 14.4475 40.9065 15.3951 41.3405 16.4385C41.7744 17.4818 41.9985 18.6004 42 19.7303C41.9988 20.8605 41.7749 21.9793 41.3411 23.0229C40.9074 24.0665 40.2722 25.0144 39.472 25.8125C38.6718 26.6105 37.7221 27.2431 36.6774 27.6741C35.6326 28.105 34.5132 28.3258 33.383 28.324H8.617C7.48684 28.3258 6.3674 28.105 5.32263 27.6741C4.27786 27.2431 3.32823 26.6105 2.52801 25.8125C1.72778 25.0144 1.09265 24.0665 0.658881 23.0229C0.225116 21.9793 0.0012246 20.8605 0 19.7303C0.00153105 18.6006 0.225571 17.4822 0.659327 16.439C1.09308 15.3958 1.72806 14.4483 2.52801 13.6505C3.32795 12.8527 4.2772 12.2203 5.32155 11.7894C6.3659 11.3585 7.4849 11.1375 8.61467 11.139H8.80133C9.41733 5.18667 13.608 0.333334 21 0.333334V0.335667ZM21 3.82867C16.1677 3.82867 11.9537 7.64133 11.9537 12.9053C11.9537 13.7383 11.2093 14.3917 10.3577 14.3917H8.74767C5.80533 14.3917 3.41833 16.7297 3.41833 19.6113C3.41833 22.493 5.80533 24.8287 8.74767 24.8287H33.2547C36.1947 24.8287 38.5817 22.493 38.5817 19.6113C38.5817 16.7297 36.1947 14.3917 33.2523 14.3917H31.6423C30.7907 14.3917 30.0463 13.7383 30.0463 12.9053C30.0463 7.57367 25.8323 3.82867 21 3.82867V3.82867Z" fill="white"/>
</svg>
