<svg height="24" viewBox="0 0 47 47" fill="none" xmlns="http://www.w3.org/2000/svg">
<path d="M23.4167 0.666668C23.8399 0.666763 24.2488 0.820239 24.5675 1.09867C24.8863 1.3771 25.0933 1.76162 25.1503 2.181L25.1667 2.419L25.1643 10.224L30.2323 5.77433C30.405 5.62266 30.6058 5.50648 30.8234 5.43242C31.041 5.35837 31.271 5.32789 31.5003 5.34273C31.7297 5.35757 31.9539 5.41744 32.1601 5.51892C32.3663 5.6204 32.5505 5.7615 32.7022 5.93417C32.8538 6.10683 32.97 6.30768 33.0441 6.52525C33.1181 6.74282 33.1486 6.97284 33.1338 7.20219C33.1189 7.43153 33.059 7.65571 32.9576 7.86192C32.8561 8.06812 32.715 8.25232 32.5423 8.404L25.1667 14.8837L25.162 21.6667H31.9497L38.4363 14.2933C38.7132 13.9783 39.0941 13.7732 39.5095 13.7154C39.9249 13.6576 40.3473 13.7509 40.6997 13.9783L40.905 14.1347C41.22 14.4116 41.4251 14.7924 41.4829 15.2078C41.5407 15.6232 41.4474 16.0456 41.22 16.398L41.0637 16.6033L36.6117 21.6667H44.4167C44.8399 21.6668 45.2488 21.8202 45.5675 22.0987C45.8863 22.3771 46.0933 22.7616 46.1503 23.181L46.1667 23.4167C46.1666 23.8396 46.0135 24.2481 45.7355 24.5668C45.4576 24.8855 45.0736 25.0928 44.6547 25.1503L44.4167 25.1667H36.6047L41.059 30.237C41.3365 30.552 41.4915 30.9562 41.4958 31.376C41.5001 31.7958 41.3533 32.2031 41.0823 32.5237L40.9003 32.7057C40.5853 32.9832 40.1811 33.1382 39.7613 33.1425C39.3416 33.1468 38.9342 33 38.6137 32.729L38.4293 32.547L31.945 25.1667H25.1597L25.162 31.9497L32.5447 38.4363C32.8597 38.7132 33.0648 39.0941 33.1226 39.5095C33.1804 39.9249 33.0871 40.3473 32.8597 40.6997L32.7033 40.9073C32.4264 41.2223 32.0456 41.4274 31.6302 41.4853C31.2148 41.5431 30.7924 41.4498 30.44 41.2223L30.2347 41.066L25.162 36.6093L25.1597 44.4213C25.1596 44.8446 25.0061 45.2534 24.7277 45.5722C24.4492 45.891 24.0647 46.098 23.6453 46.155L23.4097 46.169C22.9868 46.169 22.5782 46.0158 22.2595 45.7379C21.9408 45.4599 21.7335 45.076 21.676 44.657L21.6597 44.419L21.6573 36.6187L16.601 41.066C16.2523 41.3723 15.7962 41.5276 15.333 41.4976C14.8698 41.4676 14.4375 41.2549 14.1312 40.9062C13.8248 40.5575 13.6696 40.1013 13.6996 39.6381C13.7295 39.175 13.9423 38.7427 14.291 38.4363L21.6597 31.9567V25.1667H15.3947L8.40166 33.1303C8.09533 33.479 7.66303 33.6918 7.19984 33.7218C6.73666 33.7517 6.28054 33.5965 5.93183 33.2902C5.58311 32.9838 5.37036 32.5515 5.34039 32.0884C5.31041 31.6252 5.46567 31.169 5.77199 30.8203L10.7373 25.1667L2.41666 25.1713C1.99342 25.1712 1.58456 25.0178 1.2658 24.7393C0.94704 24.4609 0.739987 24.0764 0.682991 23.657L0.666658 23.419C0.666111 22.9957 0.819005 22.5866 1.09701 22.2674C1.37502 21.9482 1.7593 21.7406 2.17866 21.683L2.41666 21.669H9.70599L5.77199 17.182C5.46567 16.8333 5.31041 16.3772 5.34039 15.914C5.37036 15.4508 5.58311 15.0185 5.93182 14.7122C6.28054 14.4058 6.73666 14.2506 7.19984 14.2806C7.66303 14.3105 8.09533 14.5233 8.40166 14.872L14.3633 21.6667H21.662V14.8767L14.2887 8.39467C13.9736 8.11776 13.7686 7.73693 13.7107 7.32151C13.6529 6.9061 13.7462 6.48374 13.9737 6.13133L14.13 5.926C14.4069 5.61099 14.7877 5.4059 15.2031 5.34808C15.6186 5.29027 16.0409 5.38357 16.3933 5.611L16.601 5.76733L21.6643 10.217L21.6667 2.41667C21.6666 2.03381 21.7921 1.66148 22.0239 1.35677C22.2557 1.05205 22.581 0.831764 22.95 0.729668L23.1787 0.683001L23.4167 0.666668Z" fill="white"/>
</svg>
