<svg height="24" viewBox="0 0 48 47" fill="none" xmlns="http://www.w3.org/2000/svg">
<path d="M21.0833 42.6667C21.5475 42.6667 21.9926 42.851 22.3208 43.1792C22.649 43.5074 22.8333 43.9525 22.8333 44.4167C22.8333 44.8808 22.649 45.3259 22.3208 45.6541C21.9926 45.9823 21.5475 46.1667 21.0833 46.1667C20.6192 46.1667 20.1741 45.9823 19.8459 45.6541C19.5177 45.3259 19.3333 44.8808 19.3333 44.4167C19.3333 43.9525 19.5177 43.5074 19.8459 43.1792C20.1741 42.851 20.6192 42.6667 21.0833 42.6667ZM31.5833 42.6667C32.0475 42.6667 32.4926 42.851 32.8208 43.1792C33.149 43.5074 33.3333 43.9525 33.3333 44.4167C33.3333 44.8808 33.149 45.3259 32.8208 45.6541C32.4926 45.9823 32.0475 46.1667 31.5833 46.1667C31.1192 46.1667 30.6741 45.9823 30.3459 45.6541C30.0177 45.3259 29.8333 44.8808 29.8333 44.4167C29.8333 43.9525 30.0177 43.5074 30.3459 43.1792C30.6741 42.851 31.1192 42.6667 31.5833 42.6667ZM15.8333 40.3333C16.2975 40.3333 16.7426 40.5177 17.0708 40.8459C17.399 41.1741 17.5833 41.6192 17.5833 42.0833C17.5833 42.5474 17.399 42.9926 17.0708 43.3208C16.7426 43.6489 16.2975 43.8333 15.8333 43.8333C15.3692 43.8333 14.9241 43.6489 14.5959 43.3208C14.2677 42.9926 14.0833 42.5474 14.0833 42.0833C14.0833 41.6192 14.2677 41.1741 14.5959 40.8459C14.9241 40.5177 15.3692 40.3333 15.8333 40.3333ZM26.3333 40.3333C26.7975 40.3333 27.2426 40.5177 27.5708 40.8459C27.899 41.1741 28.0833 41.6192 28.0833 42.0833C28.0833 42.5474 27.899 42.9926 27.5708 43.3208C27.2426 43.6489 26.7975 43.8333 26.3333 43.8333C25.8692 43.8333 25.4241 43.6489 25.0959 43.3208C24.7677 42.9926 24.5833 42.5474 24.5833 42.0833C24.5833 41.6192 24.7677 41.1741 25.0959 40.8459C25.4241 40.5177 25.8692 40.3333 26.3333 40.3333ZM36.8333 40.3333C37.2975 40.3333 37.7426 40.5177 38.0708 40.8459C38.399 41.1741 38.5833 41.6192 38.5833 42.0833C38.5833 42.5474 38.399 42.9926 38.0708 43.3208C37.7426 43.6489 37.2975 43.8333 36.8333 43.8333C36.3692 43.8333 35.9241 43.6489 35.5959 43.3208C35.2677 42.9926 35.0833 42.5474 35.0833 42.0833C35.0833 41.6192 35.2677 41.1741 35.5959 40.8459C35.9241 40.5177 36.3692 40.3333 36.8333 40.3333V40.3333ZM26.338 10.0233C33.7323 10.0233 37.9253 14.9163 38.5367 20.8267H38.7233C39.8533 20.8251 40.9725 21.0462 42.017 21.4773C43.0615 21.9083 44.0109 22.541 44.8108 23.339C45.6108 24.137 46.2457 25.0848 46.6794 26.1283C47.113 27.1717 47.3368 28.2904 47.338 29.4203C47.3365 30.5501 47.1124 31.6685 46.6787 32.7117C46.2449 33.7548 45.6099 34.7024 44.81 35.5001C44.0101 36.2979 43.0608 36.9303 42.0165 37.3613C40.9721 37.7922 39.8531 38.0132 38.7233 38.0116H13.9527C12.8229 38.0132 11.7039 37.7922 10.6596 37.3613C9.61521 36.9303 8.66597 36.2979 7.86602 35.5001C7.06607 34.7024 6.4311 33.7548 5.99734 32.7117C5.56358 31.6685 5.33954 30.5501 5.33801 29.4203C5.33924 28.2904 5.56305 27.1717 5.99667 26.1283C6.43029 25.0848 7.06522 24.137 7.8652 23.339C8.66517 22.541 9.61452 21.9083 10.659 21.4773C11.7035 21.0462 12.8227 20.8251 13.9527 20.8267H14.1393C14.753 14.8767 18.9437 10.0233 26.3357 10.0233H26.338ZM26.338 13.5187C21.5057 13.5187 17.2917 17.329 17.2917 22.593C17.2917 23.426 16.5473 24.0817 15.6957 24.0817H14.0857C11.1433 24.0817 8.75634 26.4173 8.75634 29.299C8.75634 32.1807 11.1433 34.5187 14.0857 34.5187H38.5927C41.5327 34.5187 43.9197 32.1807 43.9197 29.299C43.9197 26.4173 41.535 24.0817 38.5927 24.0817H36.9803C36.1287 24.0817 35.3843 23.4283 35.3843 22.593C35.3843 17.2613 31.1703 13.5163 26.338 13.5163V13.5187ZM6.19201 19.7207C6.35342 20.1114 6.36791 20.5474 6.2328 20.948C6.09769 21.3486 5.82211 21.6868 5.45701 21.9L5.24468 22.0073L3.08401 22.901C2.67449 23.0702 2.21603 23.0777 1.80116 22.9221C1.38629 22.7665 1.0459 22.4593 0.848692 22.0625C0.65148 21.6657 0.612129 21.2088 0.73858 20.7842C0.865031 20.3595 1.14787 19.9986 1.53001 19.7743L1.74468 19.667L3.90535 18.7733C4.11769 18.6854 4.34528 18.6401 4.57513 18.6401C4.80497 18.6401 5.03256 18.6854 5.24491 18.7733C5.45725 18.8613 5.65018 18.9902 5.81269 19.1528C5.9752 19.3153 6.10409 19.5083 6.19201 19.7207V19.7207ZM21.3283 8.44132L20.927 8.57665C19.7135 9.002 18.5665 9.5975 17.5203 10.3453C16.3969 9.9804 15.1878 9.97364 14.0604 10.326C12.9329 10.6783 11.9428 11.3724 11.2271 12.3121C10.5114 13.2518 10.1054 14.3907 10.0653 15.5712C10.0252 16.7517 10.353 17.9156 11.0033 18.9017C9.86613 19.2211 8.78928 19.7256 7.81601 20.395C6.74657 18.5568 6.3471 16.4049 6.68559 14.3054C7.02407 12.2059 8.07958 10.2886 9.67251 8.8797C11.2654 7.47079 13.2974 6.65737 15.4225 6.57787C17.5476 6.49837 19.6346 7.1577 21.3283 8.44365V8.44132ZM2.86235 8.51365L3.10968 8.59532L5.27035 9.49132C5.67664 9.66163 6.00374 9.97892 6.18636 10.3798C6.36898 10.7807 6.39367 11.2358 6.25551 11.6541C6.11735 12.0724 5.8265 12.4232 5.44102 12.6365C5.05555 12.8498 4.60382 12.9098 4.17601 12.8047L3.93335 12.7277L1.77268 11.8317C1.36746 11.6608 1.04141 11.3437 0.859397 10.9434C0.677382 10.5431 0.652747 10.0889 0.790394 9.6713C0.928041 9.25365 1.21788 8.90313 1.60224 8.68949C1.9866 8.47584 2.43731 8.41473 2.86468 8.51832L2.86235 8.51365ZM11.764 1.54632L11.8713 1.75865L12.765 3.92165C12.9318 4.33082 12.9376 4.78792 12.7813 5.2012C12.625 5.61448 12.3182 5.95334 11.9224 6.14976C11.5266 6.34617 11.0712 6.3856 10.6475 6.26014C10.2239 6.13467 9.86334 5.85359 9.63834 5.47332L9.53101 5.26099L8.63734 3.09799C8.47057 2.68882 8.46475 2.23172 8.62104 1.81844C8.77734 1.40516 9.08418 1.0663 9.47996 0.869885C9.87575 0.673468 10.3312 0.634036 10.7548 0.759505C11.1785 0.884973 11.539 1.16605 11.764 1.54632V1.54632ZM21.9233 0.80432C22.3103 0.965057 22.6267 1.25927 22.8151 1.6335C23.0035 2.00772 23.0513 2.43712 22.95 2.84365L22.8683 3.08865L21.9747 5.25165C21.8044 5.65794 21.4871 5.98505 21.0862 6.16767C20.6853 6.35029 20.2302 6.37498 19.8119 6.23682C19.3936 6.09866 19.0428 5.80781 18.8295 5.42233C18.6162 5.03686 18.5562 4.58512 18.6613 4.15732L18.7407 3.91232L19.6367 1.74932C19.8147 1.32085 20.1556 0.980615 20.5844 0.803407C21.0132 0.626199 21.4948 0.626528 21.9233 0.80432Z" fill="white"/>
</svg>
