<svg height="24" viewBox="0 0 52 52" fill="none" xmlns="http://www.w3.org/2000/svg">
<path d="M7.33333 36.1733C7.00667 34.9133 7.75333 33.5833 9.03667 33.2567L14.3333 31.8333L10.4367 28.0067C9.50333 27.0733 9.50333 25.5567 10.4367 24.6C11.37 23.6667 12.9333 23.6667 13.8433 24.6L17.7167 28.45L19.0933 23.2C19.42 21.8933 20.75 21.1467 22.01 21.4967C23.3167 21.8233 24.0633 23.1533 23.6667 24.4367L22.3133 29.6867L27.5633 28.3333C27.8651 28.2381 28.1831 28.2058 28.4979 28.2385C28.8126 28.2713 29.1172 28.3683 29.3928 28.5237C29.6685 28.679 29.9093 28.8893 30.1003 29.1415C30.2914 29.3938 30.4285 29.6826 30.5033 29.99C30.8533 31.25 30.1067 32.58 28.8 32.9067L23.55 34.2833L27.4 38.1567C28.3333 39.0667 28.3333 40.63 27.4 41.5633C26.4667 42.4967 24.9267 42.4967 24.0167 41.5633L20.1667 37.6667L18.7433 42.9633C18.4167 44.27 17.0867 44.9933 15.8267 44.6667C14.52 44.34 13.7967 43.01 14.1233 41.7267L15.5 36.5L10.2733 37.8767C8.99 38.2033 7.66 37.48 7.33333 36.1733ZM0.333332 21.3333C0.333332 18.2391 1.5625 15.2717 3.75042 13.0838C5.93834 10.8958 8.90581 9.66667 12 9.66667C14.3333 4.18333 19.7 0.333332 26 0.333332C34.0033 0.333332 40.56 6.54 41.1667 14.4033L42.3333 14.3333C44.8087 14.3333 47.1827 15.3167 48.933 17.067C50.6833 18.8173 51.6667 21.1913 51.6667 23.6667C51.6667 26.142 50.6833 28.516 48.933 30.2663C47.1827 32.0167 44.8087 33 42.3333 33C41.7145 33 41.121 32.7542 40.6834 32.3166C40.2458 31.879 40 31.2855 40 30.6667C40 30.0478 40.2458 29.4543 40.6834 29.0167C41.121 28.5792 41.7145 28.3333 42.3333 28.3333C43.571 28.3333 44.758 27.8417 45.6332 26.9665C46.5083 26.0913 47 24.9043 47 23.6667C47 22.429 46.5083 21.242 45.6332 20.3668C44.758 19.4917 43.571 19 42.3333 19H37.6667V16.6667C37.6667 13.5725 36.4375 10.605 34.2496 8.41709C32.0617 6.22916 29.0942 5 26 5C20.1667 5 15.3833 9.24667 14.4733 14.7767C13.7033 14.4967 12.8633 14.3333 12 14.3333C10.1435 14.3333 8.36301 15.0708 7.05025 16.3836C5.7375 17.6963 5 19.4768 5 21.3333C5 23.3167 5.81667 25.09 7.12333 26.3733C7.96333 27.2833 7.94 28.7067 7.05333 29.5933C6.83747 29.8096 6.58106 29.9813 6.29879 30.0983C6.01652 30.2154 5.71392 30.2757 5.40833 30.2757C5.10274 30.2757 4.80015 30.2154 4.51788 30.0983C4.2356 29.9813 3.9792 29.8096 3.76333 29.5933C2.67517 28.5107 1.8119 27.2236 1.22323 25.806C0.634561 24.3884 0.332124 22.8683 0.333332 21.3333V21.3333ZM30.7367 45.67C30.97 46.58 31.8333 47.0933 32.79 46.86L36.5 45.8333L35.4733 49.5433C35.24 50.5 35.7533 51.3633 36.6633 51.5967C37.55 51.8533 38.4833 51.3167 38.7167 50.4067L39.6733 46.7433L42.4033 49.45C43.0333 50.1033 44.13 50.1033 44.7833 49.45C45.4367 48.7967 45.4367 47.7 44.7833 47.07L42.0767 44.34L45.74 43.3833C46.65 43.15 47.1867 42.2167 46.93 41.33C46.6967 40.42 45.8333 39.9067 44.8767 40.14L41.1667 41.1667L42.1933 37.4567C42.4267 36.5 41.9133 35.6367 41.0033 35.4033C40.7903 35.3437 40.5676 35.3272 40.3481 35.355C40.1287 35.3828 39.917 35.4543 39.7257 35.5652C39.5343 35.6761 39.367 35.8242 39.2338 36.0008C39.1006 36.1774 39.0041 36.3789 38.95 36.5933L37.9933 40.2567L35.2633 37.55C34.9469 37.236 34.5192 37.0597 34.0733 37.0597C33.6275 37.0597 33.1998 37.236 32.8833 37.55C32.23 38.2267 32.23 39.3 32.8833 39.93L35.59 42.66L31.9267 43.6167C31.0167 43.85 30.48 44.7833 30.7367 45.67V45.67Z" fill="white"/>
</svg>
