<svg height="24" viewBox="0 0 48 38" fill="none" xmlns="http://www.w3.org/2000/svg">
<path d="M40.3287 14.3334C42.1392 14.3497 43.8731 15.0667 45.1663 16.3339C46.4596 17.6012 47.2117 19.3201 47.2648 21.1299C47.318 22.9398 46.668 24.6998 45.4513 26.0408C44.2346 27.3817 42.5458 28.1992 40.7393 28.3217L40.2563 28.3334L40.0183 28.3497H37.3C37.7433 29.22 37.9953 30.2047 37.9953 31.2477C37.9953 34.8177 35.305 37.6807 31.7537 37.6807C28.242 37.6807 26.1187 35.6227 25.547 32.7737C25.4711 32.3251 25.5728 31.8647 25.8306 31.4898C26.0884 31.115 26.4821 30.8553 26.9281 30.7658C27.3742 30.6763 27.8375 30.764 28.22 31.0103C28.6025 31.2567 28.874 31.6422 28.977 32.0854C29.243 33.4037 30.0433 34.1807 31.7537 34.1807C33.3217 34.1807 34.4953 32.9324 34.4953 31.25C34.4953 29.6424 33.17 28.3334 31.525 28.3334L2.38633 28.3497C1.93978 28.3542 1.5084 28.1879 1.1805 27.8847C0.852607 27.5816 0.653015 27.1645 0.622597 26.719C0.59218 26.2734 0.733237 25.8331 1.01689 25.4882C1.30053 25.1433 1.70531 24.9199 2.14833 24.8637L2.38633 24.8497H31.2893L31.525 24.8334C31.6767 24.8334 31.8237 24.838 31.9707 24.8474L40.072 24.852L40.198 24.838L40.6647 24.817C41.3162 24.753 41.9368 24.5074 42.4558 24.1083C42.9748 23.7092 43.3714 23.1726 43.6006 22.5593C43.8299 21.946 43.8825 21.2808 43.7526 20.6391C43.6226 19.9974 43.3153 19.405 42.8655 18.9293C42.4157 18.4535 41.8415 18.1135 41.2081 17.9478C40.5747 17.7821 39.9075 17.7973 39.2824 17.9918C38.6572 18.1863 38.0992 18.5523 37.6716 19.0481C37.2441 19.5439 36.9641 20.1497 36.8637 20.7967L36.8007 21.3544C36.7222 21.7974 36.476 22.1932 36.1134 22.4595C35.7508 22.7258 35.2995 22.8423 34.8533 22.7846C34.407 22.7269 34.0002 22.4996 33.7171 22.1499C33.4341 21.8001 33.2966 21.3548 33.3333 20.9064C33.4427 19.1258 34.2275 17.4542 35.5275 16.2326C36.8276 15.0111 38.5448 14.3318 40.3287 14.3334ZM24 19H2.43066C1.98727 18.9999 1.56047 18.8314 1.23648 18.5287C0.912497 18.2261 0.71549 17.8117 0.685269 17.3693C0.655048 16.9269 0.793865 16.4896 1.07367 16.1457C1.35348 15.8017 1.75341 15.5768 2.19266 15.5164L2.43066 15.5H24C25.1537 15.5 26.2815 15.1579 27.2408 14.5169C28.2001 13.876 28.9478 12.9649 29.3893 11.899C29.8308 10.8331 29.9463 9.66021 29.7212 8.52866C29.4962 7.3971 28.9406 6.3577 28.1248 5.5419C27.309 4.72609 26.2696 4.17052 25.138 3.94544C24.0065 3.72036 22.8336 3.83588 21.7677 4.27739C20.7018 4.7189 19.7907 5.46657 19.1498 6.42586C18.5088 7.38515 18.1667 8.51296 18.1667 9.66669C18.1667 10.1308 17.9823 10.5759 17.6541 10.9041C17.3259 11.2323 16.8808 11.4167 16.4167 11.4167C15.9525 11.4167 15.5074 11.2323 15.1792 10.9041C14.851 10.5759 14.6667 10.1308 14.6667 9.66669C14.6667 7.8427 15.2012 6.05871 16.2041 4.53518C17.207 3.01165 18.6343 1.81537 20.3096 1.09417C21.985 0.372977 23.8349 0.158483 25.6309 0.477198C27.4268 0.795913 29.09 1.63387 30.4148 2.8875C31.7397 4.14113 32.6682 5.7555 33.0857 7.53108C33.5031 9.30666 33.3911 11.1656 32.7635 12.8783C32.1359 14.5909 31.0203 16.0821 29.5544 17.1676C28.0886 18.253 26.3369 18.8852 24.5157 18.986L24.0023 19H2.42833H24Z" fill="white"/>
</svg>
