<svg height="24" viewBox="0 0 48 48" fill="none" xmlns="http://www.w3.org/2000/svg">
<path d="M24 0.666668C24.4641 0.666668 24.9092 0.851042 25.2374 1.17923C25.5656 1.50742 25.75 1.95254 25.75 2.41667V5.91667C25.75 6.3808 25.5656 6.82592 25.2374 7.15411C24.9092 7.48229 24.4641 7.66667 24 7.66667C23.5359 7.66667 23.0907 7.48229 22.7626 7.15411C22.4344 6.82592 22.25 6.3808 22.25 5.91667V2.41667C22.25 1.95254 22.4344 1.50742 22.7626 1.17923C23.0907 0.851042 23.5359 0.666668 24 0.666668ZM24 35.6667C27.0942 35.6667 30.0616 34.4375 32.2496 32.2496C34.4375 30.0617 35.6667 27.0942 35.6667 24C35.6667 20.9058 34.4375 17.9383 32.2496 15.7504C30.0616 13.5625 27.0942 12.3333 24 12.3333C20.9058 12.3333 17.9383 13.5625 15.7504 15.7504C13.5625 17.9383 12.3333 20.9058 12.3333 24C12.3333 27.0942 13.5625 30.0617 15.7504 32.2496C17.9383 34.4375 20.9058 35.6667 24 35.6667ZM24 32.1667C22.9275 32.1667 21.8656 31.9554 20.8747 31.545C19.8839 31.1346 18.9836 30.5331 18.2253 29.7747C17.4669 29.0164 16.8654 28.1161 16.455 27.1253C16.0446 26.1344 15.8333 25.0725 15.8333 24C15.8333 22.9275 16.0446 21.8656 16.455 20.8748C16.8654 19.8839 17.4669 18.9836 18.2253 18.2253C18.9836 17.467 19.8839 16.8654 20.8747 16.455C21.8656 16.0446 22.9275 15.8333 24 15.8333C26.1659 15.8333 28.2431 16.6938 29.7747 18.2253C31.3062 19.7568 32.1667 21.8341 32.1667 24C32.1667 26.1659 31.3062 28.2432 29.7747 29.7747C28.2431 31.3063 26.1659 32.1667 24 32.1667ZM45.5833 25.75C46.0475 25.75 46.4926 25.5656 46.8208 25.2374C47.149 24.9093 47.3333 24.4641 47.3333 24C47.3333 23.5359 47.149 23.0908 46.8208 22.7626C46.4926 22.4344 46.0475 22.25 45.5833 22.25H42.0833C41.6192 22.25 41.1741 22.4344 40.8459 22.7626C40.5177 23.0908 40.3333 23.5359 40.3333 24C40.3333 24.4641 40.5177 24.9093 40.8459 25.2374C41.1741 25.5656 41.6192 25.75 42.0833 25.75H45.5833ZM24 40.3333C24.4641 40.3333 24.9092 40.5177 25.2374 40.8459C25.5656 41.1741 25.75 41.6192 25.75 42.0833V45.5833C25.75 46.0475 25.5656 46.4926 25.2374 46.8208C24.9092 47.149 24.4641 47.3333 24 47.3333C23.5359 47.3333 23.0907 47.149 22.7626 46.8208C22.4344 46.4926 22.25 46.0475 22.25 45.5833V42.0833C22.25 41.6192 22.4344 41.1741 22.7626 40.8459C23.0907 40.5177 23.5359 40.3333 24 40.3333ZM5.91666 25.75C6.38079 25.75 6.82591 25.5656 7.15409 25.2374C7.48228 24.9093 7.66666 24.4641 7.66666 24C7.66666 23.5359 7.48228 23.0908 7.15409 22.7626C6.82591 22.4344 6.38079 22.25 5.91666 22.25H2.41666C1.95253 22.25 1.50741 22.4344 1.17922 22.7626C0.851031 23.0908 0.666656 23.5359 0.666656 24C0.666656 24.4641 0.851031 24.9093 1.17922 25.2374C1.50741 25.5656 1.95253 25.75 2.41666 25.75H5.91666ZM5.84666 5.84667C6.17478 5.51895 6.61957 5.33487 7.08332 5.33487C7.54708 5.33487 7.99186 5.51895 8.31999 5.84667L11.82 9.34667C12.1291 9.67841 12.2974 10.1172 12.2894 10.5706C12.2814 11.0239 12.0977 11.4565 11.7771 11.7771C11.4565 12.0978 11.0239 12.2814 10.5705 12.2894C10.1172 12.2974 9.6784 12.1291 9.34666 11.82L5.84666 8.32C5.51894 7.99188 5.33486 7.54709 5.33486 7.08334C5.33486 6.61958 5.51894 6.17479 5.84666 5.84667V5.84667ZM8.31999 42.1533C8.15978 42.3253 7.96658 42.4632 7.75191 42.5588C7.53725 42.6545 7.30552 42.7059 7.07054 42.71C6.83557 42.7142 6.60217 42.671 6.38426 42.583C6.16636 42.4949 5.96841 42.3639 5.80223 42.1978C5.63606 42.0316 5.50505 41.8336 5.41704 41.6157C5.32902 41.3978 5.2858 41.1644 5.28994 40.9295C5.29409 40.6945 5.34552 40.4627 5.44117 40.2481C5.53682 40.0334 5.67472 39.8402 5.84666 39.68L9.34666 36.18C9.50687 36.0081 9.70007 35.8702 9.91473 35.7745C10.1294 35.6789 10.3611 35.6274 10.5961 35.6233C10.8311 35.6191 11.0645 35.6624 11.2824 35.7504C11.5003 35.8384 11.6982 35.9694 11.8644 36.1356C12.0306 36.3018 12.1616 36.4997 12.2496 36.7176C12.3376 36.9355 12.3808 37.1689 12.3767 37.4039C12.3726 37.6389 12.3211 37.8706 12.2255 38.0853C12.1298 38.2999 11.9919 38.4931 11.82 38.6533L8.31999 42.1533ZM42.1533 5.84667C41.8252 5.51895 41.3804 5.33487 40.9167 5.33487C40.4529 5.33487 40.0081 5.51895 39.68 5.84667L36.18 9.34667C35.8709 9.67841 35.7026 10.1172 35.7106 10.5706C35.7186 11.0239 35.9022 11.4565 36.2229 11.7771C36.5435 12.0978 36.9761 12.2814 37.4294 12.2894C37.8828 12.2974 38.3216 12.1291 38.6533 11.82L42.1533 8.32C42.481 7.99188 42.6651 7.54709 42.6651 7.08334C42.6651 6.61958 42.481 6.17479 42.1533 5.84667V5.84667ZM39.68 42.1533C39.8402 42.3253 40.0334 42.4632 40.2481 42.5588C40.4627 42.6545 40.6945 42.7059 40.9294 42.71C41.1644 42.7142 41.3978 42.671 41.6157 42.583C41.8336 42.4949 42.0316 42.3639 42.1977 42.1978C42.3639 42.0316 42.4949 41.8336 42.5829 41.6157C42.671 41.3978 42.7142 41.1644 42.71 40.9295C42.7059 40.6945 42.6545 40.4627 42.5588 40.2481C42.4632 40.0334 42.3253 39.8402 42.1533 39.68L38.6533 36.18C38.4931 36.0081 38.2999 35.8702 38.0853 35.7745C37.8706 35.6789 37.6389 35.6274 37.4039 35.6233C37.1689 35.6191 36.9355 35.6624 36.7176 35.7504C36.4997 35.8384 36.3017 35.9694 36.1356 36.1356C35.9694 36.3018 35.8384 36.4997 35.7504 36.7176C35.6624 36.9355 35.6191 37.1689 35.6233 37.4039C35.6274 37.6389 35.6789 37.8706 35.7745 38.0853C35.8702 38.2999 36.0081 38.4931 36.18 38.6533L39.68 42.1533Z" fill="white"/>
</svg>
