<svg width="21" height="21" viewBox="0 0 28 26" fill="none" xmlns="http://www.w3.org/2000/svg">
<path fill-rule="evenodd" clip-rule="evenodd" d="M28 13C28 13.4641 27.8156 13.9092 27.4874 14.2374C27.1592 14.5656 26.7141 14.75 26.25 14.75H5.97449L13.489 22.261C13.6517 22.4237 13.7808 22.6169 13.8688 22.8295C13.9569 23.042 14.0022 23.2699 14.0022 23.5C14.0022 23.7301 13.9569 23.958 13.8688 24.1705C13.7808 24.3831 13.6517 24.5763 13.489 24.739C13.3263 24.9017 13.1331 25.0308 12.9205 25.1188C12.7079 25.2069 12.4801 25.2522 12.25 25.2522C12.0199 25.2522 11.792 25.2069 11.5794 25.1188C11.3669 25.0308 11.1737 24.9017 11.011 24.739L0.510985 14.239C0.348013 14.0764 0.218713 13.8833 0.13049 13.6707C0.0422679 13.4581 -0.00314331 13.2302 -0.00314331 13C-0.00314331 12.7698 0.0422679 12.5419 0.13049 12.3293C0.218713 12.1167 0.348013 11.9236 0.510985 11.761L11.011 1.261C11.3396 0.932395 11.7853 0.747787 12.25 0.747787C12.7147 0.747787 13.1604 0.932395 13.489 1.261C13.8176 1.5896 14.0022 2.03528 14.0022 2.5C14.0022 2.96471 13.8176 3.4104 13.489 3.739L5.97449 11.25H26.25C26.7141 11.25 27.1592 11.4344 27.4874 11.7626C27.8156 12.0908 28 12.5359 28 13Z" fill="white"/>
</svg>
