<svg height="24" viewBox="0 0 48 38" fill="none" xmlns="http://www.w3.org/2000/svg">
<path d="M26.338 9.68768C33.73 9.68768 37.9253 14.5807 38.5343 20.491H38.721C39.851 20.4895 40.9702 20.7106 42.0147 21.1416C43.0592 21.5727 44.0085 22.2053 44.8085 23.0033C45.6085 23.8014 46.2434 24.7492 46.677 25.7926C47.1106 26.8361 47.3344 27.9547 47.3357 29.0847C47.3341 30.2144 47.1101 31.3328 46.6763 32.376C46.2426 33.4192 45.6076 34.3667 44.8077 35.1645C44.0077 35.9623 43.0585 36.5947 42.0141 37.0256C40.9698 37.4565 39.8508 37.6775 38.721 37.676H13.9527C12.8229 37.6775 11.7039 37.4565 10.6596 37.0256C9.61521 36.5947 8.66596 35.9623 7.86601 35.1645C7.06607 34.3667 6.43109 33.4192 5.99733 32.376C5.56357 31.3328 5.33953 30.2144 5.338 29.0847C5.33923 27.9547 5.56304 26.8361 5.99666 25.7926C6.43028 24.7492 7.06521 23.8014 7.86519 23.0033C8.66516 22.2053 9.61451 21.5727 10.659 21.1416C11.7035 20.7106 12.8227 20.4895 13.9527 20.491H14.1393C14.753 14.541 18.946 9.68768 26.338 9.68768V9.68768ZM26.338 13.1807C21.5033 13.1807 17.2917 16.9933 17.2917 22.2573C17.2917 23.0903 16.5473 23.746 15.6957 23.746H14.0857C11.141 23.746 8.75634 26.0794 8.75634 28.9633C8.75634 31.845 11.141 34.1807 14.0833 34.1807H38.5903C41.5327 34.1807 43.9173 31.8473 43.9173 28.9633C43.9173 26.0817 41.5327 23.746 38.5903 23.746H36.9803C36.1263 23.746 35.382 23.0927 35.382 22.2573C35.382 16.9257 31.1703 13.1807 26.338 13.1807V13.1807ZM11.3743 0.335684C13.2339 0.435972 15.0433 0.974878 16.6547 1.90835C19.0207 3.26996 20.8415 5.40982 21.8067 7.96335C20.64 8.29002 19.5597 8.75202 18.5727 9.32602C18.1533 8.15604 17.4763 7.09527 16.5918 6.2221C15.7073 5.34892 14.6379 4.68567 13.4627 4.28135C13.836 7.43602 13.353 10.145 12.0113 12.707L11.736 13.204C10.4037 15.4814 8.39467 17.1893 5.39167 18.58C6.13534 19.1976 6.97994 19.6822 7.88834 20.0127C6.83834 20.7173 5.91667 21.6017 5.16767 22.6237C3.49042 21.7351 2.05211 20.4553 0.97467 18.8927C0.822452 18.6717 0.723084 18.4187 0.684246 18.1532C0.645409 17.8877 0.668142 17.6168 0.750689 17.3615C0.833235 17.1062 0.973384 16.8733 1.1603 16.6808C1.34722 16.4883 1.5759 16.3414 1.82867 16.2513C5.66234 14.8793 7.725 13.3347 8.908 11.0807C10.196 8.61902 10.434 6.00802 9.57767 2.50102C9.51181 2.23497 9.50935 1.95717 9.57051 1.69001C9.63166 1.42284 9.75471 1.17377 9.92975 0.962863C10.1048 0.751958 10.3269 0.585114 10.5782 0.475772C10.8296 0.366429 11.103 0.317645 11.3767 0.333351L11.3743 0.335684Z" fill="black"/>
</svg>
