<svg height="24" viewBox="0 0 56 56" fill="none" xmlns="http://www.w3.org/2000/svg">
<g clip-path="url(#clip0_4_170)">
<path fill-rule="evenodd" clip-rule="evenodd" d="M45.1963 12.8057C44.5873 6.89533 40.3943 2.00233 33 2.00233V2C25.608 2 21.4173 6.85333 20.8013 12.8057H20.6147C19.4849 12.8041 18.3659 13.0251 17.3216 13.4561C16.2772 13.887 15.328 14.5194 14.528 15.3172C13.7281 16.115 13.0931 17.0625 12.6593 18.1057C12.2256 19.1488 12.0015 20.2672 12 21.397C12.0012 22.5272 12.2251 23.646 12.6589 24.6896C13.0926 25.7332 13.7278 26.6811 14.528 27.4792C15.3282 28.2772 16.2779 28.9098 17.3226 29.3407C18.3674 29.7716 19.4868 29.9925 20.617 29.9907H45.383C46.5132 29.9925 47.6326 29.7716 48.6774 29.3407C49.7221 28.9098 50.6718 28.2772 51.472 27.4792C52.2722 26.6811 52.9074 25.7332 53.3411 24.6896C53.7749 23.646 53.9988 22.5272 54 21.397C53.9985 20.267 53.7744 19.1485 53.3405 18.1051C52.9065 17.0618 52.2714 16.1142 51.4712 15.3163C50.671 14.5185 49.7215 13.8862 48.6768 13.4554C47.6322 13.0246 46.513 12.8038 45.383 12.8057H45.1963Z" fill="black"/>
<path fill-rule="evenodd" clip-rule="evenodd" d="M35.1963 18.8057C34.5873 12.8953 30.3943 8.00233 23 8.00233V8C15.608 8 11.4173 12.8533 10.8013 18.8057H10.6147C9.4849 18.8042 8.3659 19.0252 7.32155 19.4561C6.2772 19.887 5.32795 20.5194 4.52801 21.3172C3.72806 22.115 3.09308 23.0625 2.65933 24.1057C2.22557 25.1489 2.00153 26.2673 2 27.397C2.00122 28.5272 2.22512 29.646 2.65888 30.6896C3.09265 31.7332 3.72778 32.6811 4.52801 33.4792C5.32823 34.2772 6.27786 34.9098 7.32263 35.3407C8.3674 35.7717 9.48685 35.9925 10.617 35.9907H35.383C36.5132 35.9925 37.6326 35.7717 38.6774 35.3407C39.7221 34.9098 40.6718 34.2772 41.472 33.4792C42.2722 32.6811 42.9074 31.7332 43.3411 30.6896C43.7749 29.646 43.9988 28.5272 44 27.397C43.9985 26.2671 43.7744 25.1485 43.3405 24.1052C42.9065 23.0618 42.2714 22.1142 41.4712 21.3164C40.671 20.5186 39.7215 19.8862 38.6768 19.4554C37.6322 19.0246 36.513 18.8039 35.383 18.8057H35.1963Z" fill="aliceblue"/>
<path fill-rule="evenodd" clip-rule="evenodd" d="M22.5072 40.892C22.9713 40.892 23.4164 41.0764 23.7446 41.4046C24.0728 41.7328 24.2572 42.1779 24.2572 42.642C24.2572 43.1062 24.0728 43.5513 23.7446 43.8795C23.4164 44.2077 22.9713 44.392 22.5072 44.392C22.043 44.392 21.5979 44.2077 21.2697 43.8795C20.9415 43.5513 20.7572 43.1062 20.7572 42.642C20.7572 42.1779 20.9415 41.7328 21.2697 41.4046C21.5979 41.0764 22.043 40.892 22.5072 40.892ZM7.0022 9L7 9.00072L7.0022 9.00234V9Z" fill="black"/>
<path fill-rule="evenodd" clip-rule="evenodd" d="M12.5072 38.892C12.9713 38.892 13.4164 39.0764 13.7446 39.4046C14.0728 39.7328 14.2572 40.1779 14.2572 40.642C14.2572 41.1062 14.0728 41.5513 13.7446 41.8795C13.4164 42.2077 12.9713 42.392 12.5072 42.392C12.043 42.392 11.5979 42.2077 11.2697 41.8795C10.9415 41.5513 10.7572 41.1062 10.7572 40.642C10.7572 40.1779 10.9415 39.7328 11.2697 39.4046C11.5979 39.0764 12.043 38.892 12.5072 38.892ZM-2.9978 7L-3 7.00072L-2.9978 7.00234V7Z" fill="black"/>
<path fill-rule="evenodd" clip-rule="evenodd" d="M23.5072 38.892C23.9713 38.892 24.4164 39.0764 24.7446 39.4046C25.0728 39.7328 25.2572 40.1779 25.2572 40.642C25.2572 41.1062 25.0728 41.5513 24.7446 41.8795C24.4164 42.2077 23.9713 42.392 23.5072 42.392C23.043 42.392 22.5979 42.2077 22.2697 41.8795C21.9415 41.5513 21.7572 41.1062 21.7572 40.642C21.7572 40.1779 21.9415 39.7328 22.2697 39.4046C22.5979 39.0764 23.043 38.892 23.5072 38.892ZM8.0022 7L8 7.00072L8.0022 7.00234V7Z" fill="black"/>
<path fill-rule="evenodd" clip-rule="evenodd" d="M14.25 36.5C14.7141 36.5 15.1592 36.6844 15.4874 37.0126C15.8156 37.3408 16 37.7859 16 38.25C16 38.7142 15.8156 39.1593 15.4874 39.4875C15.1592 39.8157 14.7141 40 14.25 40C13.7858 40 13.3407 39.8157 13.0125 39.4875C12.6843 39.1593 12.5 38.7142 12.5 38.25C12.5 37.7859 12.6843 37.3408 13.0125 37.0126C13.3407 36.6844 13.7858 36.5 14.25 36.5ZM-1.255 4.60803L-1.2572 4.60875L-1.255 4.61037V4.60803Z" fill="black"/>
<path fill-rule="evenodd" clip-rule="evenodd" d="M16.75 32.75C17.2141 32.75 17.6592 32.9344 17.9874 33.2626C18.3156 33.5908 18.5 34.0359 18.5 34.5C18.5 34.9642 18.3156 35.4093 17.9874 35.7375C17.6592 36.0657 17.2141 36.25 16.75 36.25C16.2858 36.25 15.8407 36.0657 15.5125 35.7375C15.1843 35.4093 15 34.9642 15 34.5C15 34.0359 15.1843 33.5908 15.5125 33.2626C15.8407 32.9344 16.2858 32.75 16.75 32.75ZM1.245 0.858032L1.2428 0.858752L1.245 0.860372V0.858032Z" fill="black"/>
<path fill-rule="evenodd" clip-rule="evenodd" d="M28.5072 44.892C28.9713 44.892 29.4164 45.0764 29.7446 45.4046C30.0728 45.7328 30.2572 46.1779 30.2572 46.642C30.2572 47.1062 30.0728 47.5513 29.7446 47.8795C29.4164 48.2077 28.9713 48.392 28.5072 48.392C28.043 48.392 27.5979 48.2077 27.2697 47.8795C26.9415 47.5513 26.7572 47.1062 26.7572 46.642C26.7572 46.1779 26.9415 45.7328 27.2697 45.4046C27.5979 45.0764 28.043 44.892 28.5072 44.892ZM13.0022 13L13 13.0007L13.0022 13.0023V13Z" fill="black"/>
<path fill-rule="evenodd" clip-rule="evenodd" d="M27.5072 46.892C27.9713 46.892 28.4164 47.0764 28.7446 47.4046C29.0728 47.7328 29.2572 48.1779 29.2572 48.642C29.2572 49.1062 29.0728 49.5513 28.7446 49.8795C28.4164 50.2077 27.9713 50.392 27.5072 50.392C27.043 50.392 26.5979 50.2077 26.2697 49.8795C25.9415 49.5513 25.7572 49.1062 25.7572 48.642C25.7572 48.1779 25.9415 47.7328 26.2697 47.4046C26.5979 47.0764 27.043 46.892 27.5072 46.892ZM12.0022 15L12 15.0007L12.0022 15.0023V15Z" fill="black"/>
<path fill-rule="evenodd" clip-rule="evenodd" d="M32.5072 37.892C32.9713 37.892 33.4164 38.0764 33.7446 38.4046C34.0728 38.7328 34.2572 39.1779 34.2572 39.642C34.2572 40.1062 34.0728 40.5513 33.7446 40.8795C33.4164 41.2077 32.9713 41.392 32.5072 41.392C32.043 41.392 31.5979 41.2077 31.2697 40.8795C30.9415 40.5513 30.7572 40.1062 30.7572 39.642C30.7572 39.1779 30.9415 38.7328 31.2697 38.4046C31.5979 38.0764 32.043 37.892 32.5072 37.892ZM17.0022 6L17 6.00072L17.0022 6.00234V6Z" fill="black"/>
<path fill-rule="evenodd" clip-rule="evenodd" d="M19.5072 44.892C19.9713 44.892 20.4164 45.0764 20.7446 45.4046C21.0728 45.7328 21.2572 46.1779 21.2572 46.642C21.2572 47.1062 21.0728 47.5513 20.7446 47.8795C20.4164 48.2077 19.9713 48.392 19.5072 48.392C19.043 48.392 18.5979 48.2077 18.2697 47.8795C17.9415 47.5513 17.7572 47.1062 17.7572 46.642C17.7572 46.1779 17.9415 45.7328 18.2697 45.4046C18.5979 45.0764 19.043 44.892 19.5072 44.892ZM4.00219 13L3.99999 13.0007L4.00219 13.0023V13Z" fill="black"/>
</g>
<defs>
<clipPath id="clip0_4_170">
<rect width="56" height="56" fill="white"/>
</clipPath>
</defs>
</svg>
