<svg width="26" height="22" viewBox="0 0 26 22" fill="none" xmlns="http://www.w3.org/2000/svg">
<path fill-rule="evenodd" clip-rule="evenodd" d="M13.2814 14.1181C14.1019 13.2742 15.2147 12.8 16.375 12.8H21.625C22.7853 12.8 23.8981 13.2742 24.7186 14.1181C25.5391 14.962 26 16.1066 26 17.3V19.1C26 19.5971 25.6082 20 25.125 20C24.6418 20 24.25 19.5971 24.25 19.1V17.3C24.25 16.584 23.9734 15.8972 23.4812 15.3909C22.9889 14.8845 22.3212 14.6 21.625 14.6H16.375C15.6788 14.6 15.0111 14.8845 14.5188 15.3909C14.0266 15.8972 13.75 16.584 13.75 17.3V19.1C13.75 19.5971 13.3582 20 12.875 20C12.3918 20 12 19.5971 12 19.1V17.3C12 16.1066 12.4609 14.962 13.2814 14.1181Z" fill="white"/>
<path fill-rule="evenodd" clip-rule="evenodd" d="M19 3.8C17.5503 3.8 16.375 5.00883 16.375 6.5C16.375 7.99117 17.5503 9.2 19 9.2C20.4497 9.2 21.625 7.99117 21.625 6.5C21.625 5.00883 20.4497 3.8 19 3.8ZM14.625 6.5C14.625 4.01472 16.5838 2 19 2C21.4162 2 23.375 4.01472 23.375 6.5C23.375 8.98528 21.4162 11 19 11C16.5838 11 14.625 8.98528 14.625 6.5Z" fill="white"/>
<path d="M5.16667 1.23204e-08C6.02431 -7.57346e-05 6.84948 0.349126 7.47297 0.975996C8.09646 1.60287 8.47101 2.4599 8.51983 3.37135L8.525 3.57484L8.52603 12.3217L8.6087 12.3976C9.57166 13.3114 10.1778 14.5764 10.3075 15.9427L10.3271 16.2199L10.3333 16.4993C10.3335 17.4054 10.1233 18.2976 9.72144 19.0964C9.3196 19.8953 8.73855 20.576 8.02995 21.0782C7.32135 21.5804 6.50717 21.8884 5.65978 21.9749C4.81239 22.0614 3.95806 21.9236 3.17273 21.5739C2.3874 21.2242 1.69542 20.6734 1.15829 19.9704C0.621173 19.2674 0.255557 18.434 0.0939534 17.5443C-0.0676504 16.6546 -0.0202352 15.7362 0.231983 14.8708C0.484202 14.0053 0.933408 13.2196 1.53967 12.5834L1.72567 12.3965L1.8073 12.3217L1.80833 3.57484C1.80816 2.69632 2.1119 1.84848 2.66159 1.19317C3.21127 0.537848 3.9684 0.120935 4.78847 0.021999L4.97653 0.00549989L5.16667 1.23204e-08ZM5.16667 1.64993C4.71267 1.64997 4.2753 1.83178 3.94143 2.15926C3.60757 2.48673 3.40163 2.9359 3.36453 3.41755L3.35833 3.57484V13.1378L3.03903 13.3853C2.42899 13.8577 1.97296 14.5212 1.7348 15.2832C1.49663 16.0451 1.48825 16.8672 1.71082 17.6345C1.93339 18.4017 2.37577 19.0757 2.97604 19.562C3.57631 20.0484 4.30442 20.3227 5.05845 20.3467C5.81248 20.3707 6.55468 20.1431 7.18116 19.6958C7.80764 19.2485 8.28705 18.6039 8.55226 17.8521C8.81748 17.1004 8.85523 16.2792 8.66024 15.5035C8.46524 14.7278 8.04726 14.0364 7.4648 13.5261L7.2943 13.3864L6.97707 13.1389L6.975 3.57484C6.975 3.06432 6.78448 2.57471 6.44535 2.21372C6.10622 1.85273 5.64627 1.64993 5.16667 1.64993ZM5.16667 6.59971C5.37221 6.59971 5.56933 6.68662 5.71467 6.84133C5.86001 6.99605 5.94167 7.20588 5.94167 7.42467V13.8759C6.53073 14.073 7.03402 14.4881 7.36043 15.046C7.68684 15.604 7.81479 16.2679 7.72112 16.9176C7.62746 17.5672 7.31836 18.1598 6.84979 18.5878C6.38122 19.0159 5.78414 19.2512 5.16667 19.2512C4.54919 19.2512 3.95212 19.0159 3.48355 18.5878C3.01498 18.1598 2.70588 17.5672 2.61221 16.9176C2.51854 16.2679 2.64649 15.604 2.9729 15.046C3.29931 14.4881 3.80261 14.073 4.39167 13.8759V7.42467C4.39167 7.20588 4.47332 6.99605 4.61866 6.84133C4.764 6.68662 4.96112 6.59971 5.16667 6.59971Z" fill="white"/>
</svg>
