<svg height="24" viewBox="0 0 43 48" fill="none" xmlns="http://www.w3.org/2000/svg">
<path d="M39.7273 35.669C33.2827 46.8317 19.0097 50.656 7.84701 44.2113C4.84447 42.4825 2.26629 40.1044 0.301005 37.251C0.149203 37.0303 0.0501129 36.7776 0.0113729 36.5125C-0.027367 36.2474 -0.00472277 35.9769 0.0775605 35.722C0.159844 35.467 0.299569 35.2343 0.485967 35.0419C0.672366 34.8495 0.90046 34.7024 1.15267 34.612C9.94234 31.4667 14.651 27.8197 17.3833 22.6047C20.258 17.1143 21.0023 11.1013 18.991 2.85534C18.9266 2.59016 18.9251 2.31359 18.9866 2.04773C19.0481 1.78186 19.1709 1.53406 19.3452 1.32412C19.5196 1.11418 19.7406 0.947929 19.9906 0.838636C20.2407 0.729343 20.5128 0.680042 20.7853 0.69467C24.4476 0.8918 28.0113 1.95282 31.185 3.791C42.3477 10.2333 46.172 24.5063 39.725 35.6667L39.7273 35.669ZM20.482 24.2287C17.5653 29.8007 12.7587 33.793 4.57567 37.0597C6.01138 38.7001 7.70795 40.0924 9.597 41.1803C11.853 42.4829 14.3435 43.3284 16.9262 43.6685C19.509 44.0086 22.1334 43.8366 24.6497 43.1625C27.166 42.4883 29.5249 41.3251 31.5916 39.7393C33.6584 38.1535 35.3926 36.1762 36.6952 33.9202C37.9978 31.6642 38.8432 29.1737 39.1833 26.591C39.5234 24.0082 39.3515 21.3838 38.6773 18.8675C38.0031 16.3512 36.8399 13.9923 35.2541 11.9255C33.6684 9.85877 31.691 8.12459 29.435 6.822C27.4198 5.65478 25.2144 4.85225 22.9203 4.45134C24.43 12.3473 23.457 18.554 20.482 24.2287V24.2287Z" fill="white"/>
</svg>
