<svg height="24" viewBox="0 0 52 49" fill="none" xmlns="http://www.w3.org/2000/svg">
<path fill-rule="evenodd" clip-rule="evenodd" d="M43.1963 10.8057C42.5873 4.89533 38.3943 0.00233316 31 0.00233316V0C23.608 0 19.4173 4.85333 18.8013 10.8057H18.6147C17.4849 10.8041 16.3659 11.0251 15.3216 11.4561C14.2772 11.887 13.328 12.5194 12.528 13.3172C11.7281 14.115 11.0931 15.0625 10.6593 16.1057C10.2256 17.1488 10.0015 18.2672 10 19.397C10.0012 20.5272 10.2251 21.646 10.6589 22.6896C11.0926 23.7332 11.7278 24.6811 12.528 25.4792C13.3282 26.2772 14.2779 26.9098 15.3226 27.3407C16.3674 27.7716 17.4868 27.9925 18.617 27.9907H43.383C44.5131 27.9925 45.6326 27.7716 46.6774 27.3407C47.7221 26.9098 48.6718 26.2772 49.472 25.4792C50.2722 24.6811 50.9074 23.7332 51.3411 22.6896C51.7749 21.646 51.9988 20.5272 52 19.397C51.9985 18.267 51.7744 17.1485 51.3405 16.1051C50.9065 15.0618 50.2714 14.1142 49.4712 13.3163C48.671 12.5185 47.7215 11.8862 46.6768 11.4554C45.6322 11.0246 44.513 10.8038 43.383 10.8057H43.1963Z" fill="#5C5C5C"/>
<path fill-rule="evenodd" clip-rule="evenodd" d="M33.1963 16.8057C32.5873 10.8953 28.3943 6.00233 21 6.00233V6C13.608 6 9.41733 10.8533 8.80133 16.8057H8.61467C7.4849 16.8042 6.3659 17.0252 5.32155 17.4561C4.2772 17.887 3.32795 18.5194 2.52801 19.3172C1.72806 20.115 1.09308 21.0625 0.659327 22.1057C0.225571 23.1489 0.00153105 24.2673 0 25.397C0.0012246 26.5272 0.225116 27.646 0.658881 28.6896C1.09265 29.7332 1.72778 30.6811 2.52801 31.4792C3.32823 32.2772 4.27786 32.9098 5.32263 33.3407C6.3674 33.7717 7.48685 33.9925 8.617 33.9907H33.383C34.5132 33.9925 35.6326 33.7717 36.6774 33.3407C37.7221 32.9098 38.6718 32.2772 39.472 31.4792C40.2722 30.6811 40.9074 29.7332 41.3411 28.6896C41.7749 27.646 41.9988 26.5272 42 25.397C41.9985 24.2671 41.7744 23.1485 41.3405 22.1052C40.9065 21.0618 40.2714 20.1142 39.4712 19.3164C38.671 18.5186 37.7215 17.8862 36.6768 17.4554C35.6322 17.0246 34.513 16.8039 33.383 16.8057H33.1963Z" fill="white"/>
<path d="M10.5449 38.2544L15.687 27.3431C15.7871 27.1307 15.971 27 16.17 27H22.7201C22.9313 27 23.0662 27.2782 22.9665 27.5082L20.3643 33.5145C20.2646 33.7445 20.3995 34.0227 20.6107 34.0227H22.4042C22.6668 34.0227 22.7844 34.4297 22.5812 34.6352L8.45881 48.9189C8.21776 49.1627 7.88338 48.81 8.04047 48.4776L12.3816 39.2928C12.4904 39.0626 12.356 38.7734 12.1403 38.7734H10.7865C10.5709 38.7734 10.4365 38.4846 10.5449 38.2544Z" fill="#F8FD00"/>
</svg>
