<svg width="18" height="26" viewBox="0 0 34 47" fill="none" xmlns="http://www.w3.org/2000/svg">
<path d="M32.75 30C32.75 39.6655 26.6655 45.75 17 45.75C7.33453 45.75 1.25 39.6655 1.25 30C1.25 19.628 12.5408 5.62579 16.0036 1.57564C16.1268 1.43174 16.2797 1.31622 16.4518 1.23702C16.6239 1.15781 16.8111 1.1168 17.0005 1.1168C17.19 1.1168 17.3772 1.15781 17.5493 1.23702C17.7214 1.31622 17.8743 1.43174 17.9975 1.57564C21.4592 5.62579 32.75 19.628 32.75 30Z" stroke="white" stroke-width="1.5" stroke-miterlimit="10"/>
<path d="M26.625 30.875C26.625 32.9636 25.7953 34.9666 24.3185 36.4435C22.8416 37.9203 20.8386 38.75 18.75 38.75" stroke="white" stroke-width="1.5" stroke-linecap="round" stroke-linejoin="round"/>
</svg>
