<svg  height="24" viewBox="0 0 42 45" fill="none" xmlns="http://www.w3.org/2000/svg">
<path fill-rule="evenodd" clip-rule="evenodd" d="M33.1963 11.139C32.5873 5.22867 28.3943 0.335667 21 0.335667V0.333334C13.608 0.333334 9.41733 5.18667 8.80133 11.139H8.61467C7.4849 11.1375 6.3659 11.3585 5.32155 11.7894C4.2772 12.2203 3.32795 12.8527 2.52801 13.6505C1.72806 14.4483 1.09308 15.3958 0.659327 16.439C0.225571 17.4822 0.00153105 18.6006 0 19.7303C0.0012246 20.8605 0.225116 21.9793 0.658881 23.0229C1.09265 24.0665 1.72778 25.0144 2.52801 25.8125C3.32823 26.6105 4.27786 27.2431 5.32263 27.674C6.3674 28.105 7.48685 28.3258 8.617 28.324H33.383C34.5132 28.3258 35.6326 28.105 36.6774 27.674C37.7221 27.2431 38.6718 26.6105 39.472 25.8125C40.2722 25.0144 40.9074 24.0665 41.3411 23.0229C41.7749 21.9793 41.9988 20.8605 42 19.7303C41.9985 18.6004 41.7744 17.4818 41.3405 16.4385C40.9065 15.3951 40.2714 14.4475 39.4712 13.6497C38.671 12.8519 37.7215 12.2195 36.6768 11.7887C35.6322 11.3579 34.513 11.1372 33.383 11.139H33.1963ZM11.9537 12.9053C11.9537 7.64133 16.1677 3.82867 21 3.82867C25.8323 3.82867 30.0463 7.57367 30.0463 12.9053C30.0463 13.7383 30.7907 14.3917 31.6423 14.3917H33.2523C36.1947 14.3917 38.5817 16.7297 38.5817 19.6113C38.5817 22.493 36.1947 24.8287 33.2547 24.8287H8.74767C5.80533 24.8287 3.41833 22.493 3.41833 19.6113C3.41833 16.7297 5.80533 14.3917 8.74767 14.3917H10.3577C11.2093 14.3917 11.9537 13.7383 11.9537 12.9053Z" fill="black"/>
<path d="M21.8085 34C21.9166 34 22.021 34.0359 22.1023 34.1011C22.1837 34.1663 22.2366 34.2563 22.2511 34.3544L22.2553 34.4101L22.2547 36.2368L23.5487 35.1954C23.5928 35.1599 23.644 35.1327 23.6996 35.1154C23.7551 35.0981 23.8139 35.0909 23.8724 35.0944C23.931 35.0979 23.9882 35.1119 24.0409 35.1356C24.0935 35.1594 24.1406 35.1924 24.1793 35.2328C24.218 35.2732 24.2477 35.3202 24.2666 35.3712C24.2855 35.4221 24.2933 35.4759 24.2895 35.5296C24.2857 35.5833 24.2704 35.6357 24.2445 35.684C24.2186 35.7322 24.1826 35.7754 24.1385 35.8109L22.2553 37.3274L22.2541 38.9149H23.9872L25.6433 37.1892C25.714 37.1155 25.8113 37.0675 25.9173 37.054C26.0234 37.0404 26.1312 37.0623 26.2212 37.1155L26.2736 37.1521C26.3541 37.2169 26.4064 37.306 26.4212 37.4032C26.4359 37.5005 26.4121 37.5993 26.3541 37.6818L26.3142 37.7298L25.1775 38.9149H27.1702C27.2783 38.9149 27.3827 38.9508 27.4641 39.016C27.5455 39.0812 27.5983 39.1711 27.6129 39.2693L27.617 39.3245C27.617 39.4234 27.5779 39.5191 27.507 39.5936C27.436 39.6682 27.338 39.7167 27.231 39.7302L27.1702 39.734H25.1757L26.313 40.9207C26.3838 40.9944 26.4234 41.089 26.4245 41.1873C26.4256 41.2855 26.3881 41.3809 26.3189 41.4559L26.2724 41.4985C26.192 41.5634 26.0888 41.5997 25.9816 41.6007C25.8745 41.6017 25.7704 41.5674 25.6886 41.5039L25.6415 41.4613L23.986 39.734H22.2535L22.2541 41.3216L24.1391 42.8397C24.2195 42.9045 24.2719 42.9936 24.2866 43.0909C24.3014 43.1881 24.2776 43.287 24.2195 43.3694L24.1796 43.418C24.1089 43.4917 24.0116 43.5397 23.9056 43.5533C23.7995 43.5668 23.6917 43.545 23.6017 43.4917L23.5493 43.4552L22.2541 42.4121L22.2535 44.2405C22.2535 44.3395 22.2143 44.4352 22.1432 44.5098C22.0721 44.5844 21.974 44.6329 21.8669 44.6462L21.8067 44.6495C21.6988 44.6495 21.5944 44.6137 21.5131 44.5486C21.4317 44.4836 21.3788 44.3937 21.3641 44.2956L21.3599 44.2399L21.3593 42.4143L20.0683 43.4552C19.9793 43.5268 19.8629 43.5632 19.7446 43.5562C19.6263 43.5491 19.516 43.4994 19.4378 43.4178C19.3595 43.3361 19.3199 43.2294 19.3276 43.121C19.3352 43.0126 19.3895 42.9114 19.4786 42.8397L21.3599 41.3232V39.734H19.7603L17.9749 41.5979C17.8967 41.6795 17.7863 41.7293 17.668 41.7363C17.5498 41.7433 17.4333 41.707 17.3443 41.6353C17.2553 41.5636 17.2009 41.4624 17.1933 41.354C17.1856 41.2456 17.2253 41.1388 17.3035 41.0572L18.5712 39.734L16.4468 39.7351C16.3387 39.7351 16.2344 39.6992 16.153 39.634C16.0716 39.5689 16.0187 39.4789 16.0042 39.3807L16 39.325C15.9999 39.2259 16.0389 39.1302 16.1099 39.0555C16.1809 38.9808 16.279 38.9322 16.386 38.9187L16.4468 38.9154H18.3079L17.3035 37.8653C17.2253 37.7837 17.1856 37.6769 17.1933 37.5685C17.2009 37.4601 17.2553 37.3589 17.3443 37.2872C17.4333 37.2155 17.5498 37.1792 17.668 37.1862C17.7863 37.1932 17.8967 37.243 17.9749 37.3246L19.497 38.9149H21.3605V37.3257L19.478 35.8087C19.3975 35.7439 19.3452 35.6547 19.3304 35.5575C19.3156 35.4603 19.3395 35.3614 19.3975 35.279L19.4374 35.2309C19.5081 35.1572 19.6054 35.1092 19.7114 35.0956C19.8175 35.0821 19.9253 35.1039 20.0153 35.1572L20.0683 35.1938L21.3611 36.2352L21.3617 34.4096C21.3617 34.32 21.3937 34.2328 21.4529 34.1615C21.5121 34.0902 21.5951 34.0386 21.6894 34.0147L21.7478 34.0038L21.8085 34Z" fill="#96ceff"/>
<path d="M31.8085 28C31.9166 28 32.021 28.0359 32.1023 28.1011C32.1837 28.1663 32.2366 28.2563 32.2511 28.3544L32.2553 28.4101L32.2547 30.2368L33.5487 29.1954C33.5928 29.1599 33.644 29.1327 33.6996 29.1154C33.7551 29.0981 33.8139 29.0909 33.8724 29.0944C33.931 29.0979 33.9882 29.1119 34.0409 29.1356C34.0935 29.1594 34.1406 29.1924 34.1793 29.2328C34.218 29.2732 34.2477 29.3202 34.2666 29.3712C34.2855 29.4221 34.2933 29.4759 34.2895 29.5296C34.2857 29.5833 34.2704 29.6357 34.2445 29.684C34.2186 29.7323 34.1826 29.7754 34.1385 29.8109L32.2553 31.3274L32.2541 32.9149H33.9872L35.6433 31.1892C35.714 31.1155 35.8113 31.0675 35.9173 31.054C36.0234 31.0404 36.1312 31.0623 36.2212 31.1155L36.2736 31.1521C36.3541 31.2169 36.4064 31.306 36.4212 31.4032C36.4359 31.5005 36.4121 31.5993 36.3541 31.6818L36.3142 31.7299L35.1775 32.9149H37.1702C37.2783 32.9149 37.3827 32.9508 37.4641 33.016C37.5455 33.0812 37.5983 33.1712 37.6129 33.2693L37.617 33.3245C37.617 33.4235 37.5779 33.5191 37.507 33.5937C37.436 33.6682 37.338 33.7168 37.231 33.7302L37.1702 33.7341H35.1757L36.313 34.9207C36.3838 34.9944 36.4234 35.089 36.4245 35.1873C36.4256 35.2855 36.3881 35.3809 36.3189 35.4559L36.2724 35.4985C36.192 35.5634 36.0888 35.5997 35.9816 35.6007C35.8745 35.6017 35.7704 35.5674 35.6886 35.504L35.6415 35.4614L33.986 33.7341H32.2535L32.2541 35.3216L34.1391 36.8397C34.2195 36.9045 34.2719 36.9937 34.2866 37.0909C34.3014 37.1881 34.2776 37.287 34.2195 37.3694L34.1796 37.418C34.1089 37.4917 34.0116 37.5397 33.9056 37.5533C33.7995 37.5668 33.6917 37.545 33.6017 37.4917L33.5493 37.4552L32.2541 36.4121L32.2535 38.2405C32.2535 38.3395 32.2143 38.4352 32.1432 38.5098C32.0721 38.5844 31.974 38.6329 31.8669 38.6462L31.8067 38.6495C31.6988 38.6495 31.5944 38.6137 31.5131 38.5486C31.4317 38.4836 31.3788 38.3937 31.3641 38.2956L31.3599 38.2399L31.3593 36.4143L30.0683 37.4552C29.9793 37.5269 29.8629 37.5632 29.7446 37.5562C29.6263 37.5492 29.516 37.4994 29.4378 37.4178C29.3595 37.3362 29.3199 37.2294 29.3276 37.121C29.3352 37.0126 29.3895 36.9114 29.4786 36.8397L31.3599 35.3232V33.7341H29.7603L27.9749 35.5979C27.8967 35.6795 27.7863 35.7293 27.668 35.7363C27.5498 35.7433 27.4333 35.707 27.3443 35.6353C27.2553 35.5636 27.2009 35.4624 27.1933 35.354C27.1856 35.2456 27.2253 35.1388 27.3035 35.0572L28.5712 33.7341L26.4468 33.7351C26.3387 33.7351 26.2344 33.6992 26.153 33.634C26.0716 33.5689 26.0187 33.4789 26.0042 33.3807L26 33.325C25.9999 33.2259 26.0389 33.1302 26.1099 33.0555C26.1809 32.9808 26.279 32.9322 26.386 32.9187L26.4468 32.9154H28.3079L27.3035 31.8653C27.2253 31.7837 27.1856 31.6769 27.1933 31.5685C27.2009 31.4601 27.2553 31.3589 27.3443 31.2873C27.4333 31.2155 27.5498 31.1792 27.668 31.1862C27.7863 31.1932 27.8967 31.243 27.9749 31.3247L29.497 32.9149H31.3605V31.3258L29.478 29.8087C29.3975 29.7439 29.3452 29.6547 29.3304 29.5575C29.3156 29.4603 29.3395 29.3614 29.3975 29.279L29.4374 29.2309C29.5081 29.1572 29.6054 29.1092 29.7114 29.0957C29.8175 29.0821 29.9253 29.104 30.0153 29.1572L30.0683 29.1938L31.3611 30.2352L31.3617 28.4096C31.3617 28.32 31.3937 28.2328 31.4529 28.1615C31.5121 28.0902 31.5951 28.0386 31.6894 28.0147L31.7478 28.0038L31.8085 28Z" fill="#96ceff"/>
<path d="M11.9787 28.156C12.0868 28.1561 12.1912 28.192 12.2726 28.2571C12.354 28.3223 12.4068 28.4123 12.4214 28.5104L12.4255 28.5661L12.4249 30.3929L13.7189 29.3514C13.763 29.3159 13.8142 29.2888 13.8698 29.2714C13.9254 29.2541 13.9841 29.247 14.0426 29.2504C14.1012 29.2539 14.1584 29.2679 14.2111 29.2917C14.2637 29.3154 14.3108 29.3484 14.3495 29.3888C14.3882 29.4293 14.4179 29.4763 14.4368 29.5272C14.4557 29.5781 14.4635 29.6319 14.4597 29.6856C14.4559 29.7393 14.4406 29.7918 14.4147 29.84C14.3888 29.8883 14.3528 29.9314 14.3087 29.9669L12.4255 31.4834L12.4243 33.0709H14.1574L15.8135 31.3452C15.8842 31.2715 15.9815 31.2235 16.0875 31.21C16.1936 31.1965 16.3014 31.2183 16.3914 31.2715L16.4438 31.3081C16.5243 31.3729 16.5766 31.4621 16.5914 31.5593C16.6061 31.6565 16.5823 31.7554 16.5243 31.8378L16.4844 31.8859L15.3477 33.0709H17.3404C17.4485 33.071 17.5529 33.1069 17.6343 33.172C17.7157 33.2372 17.7685 33.3272 17.7831 33.4253L17.7872 33.4805C17.7872 33.5795 17.7481 33.6751 17.6772 33.7497C17.6062 33.8243 17.5082 33.8728 17.4012 33.8862L17.3404 33.8901H15.3459L16.4832 35.0767C16.554 35.1505 16.5936 35.2451 16.5947 35.3433C16.5958 35.4416 16.5583 35.5369 16.4891 35.6119L16.4426 35.6545C16.3622 35.7195 16.259 35.7557 16.1518 35.7568C16.0447 35.7578 15.9406 35.7234 15.8588 35.66L15.8117 35.6174L14.1562 33.8901H12.4238L12.4243 35.4776L14.3093 36.9957C14.3897 37.0605 14.4421 37.1497 14.4568 37.2469C14.4716 37.3441 14.4478 37.443 14.3897 37.5255L14.3498 37.574C14.2791 37.6478 14.1819 37.6958 14.0758 37.7093C13.9697 37.7229 13.8619 37.701 13.7719 37.6478L13.7195 37.6112L12.4243 36.5681L12.4238 38.3965C12.4237 38.4955 12.3845 38.5912 12.3135 38.6658C12.2424 38.7404 12.1442 38.7889 12.0371 38.8022L11.9769 38.8055C11.869 38.8055 11.7646 38.7697 11.6833 38.7046C11.6019 38.6396 11.549 38.5497 11.5343 38.4516L11.5301 38.3959L11.5295 36.5703L10.2386 37.6112C10.1495 37.6829 10.0331 37.7192 9.91481 37.7122C9.79655 37.7052 9.68617 37.6554 9.60797 37.5738C9.52974 37.4922 9.49011 37.3854 9.49777 37.277C9.50541 37.1686 9.55974 37.0674 9.64877 36.9957L11.5301 35.4792V33.8901H9.93056L8.14511 35.7539C8.06689 35.8355 7.95652 35.8853 7.83826 35.8923C7.72 35.8993 7.60354 35.863 7.51451 35.7913C7.42548 35.7196 7.37116 35.6184 7.36351 35.5101C7.35585 35.4016 7.39549 35.2949 7.4737 35.2133L8.74144 33.8901L6.61702 33.8912C6.50896 33.8911 6.40457 33.8552 6.32318 33.79C6.2418 33.7249 6.18893 33.6349 6.17438 33.5367L6.17021 33.481C6.17007 33.382 6.20911 33.2862 6.28009 33.2115C6.35107 33.1368 6.44918 33.0882 6.55626 33.0747L6.61702 33.0715H8.47813L7.4737 32.0213C7.39549 31.9397 7.35585 31.833 7.36351 31.7246C7.37116 31.6161 7.42548 31.515 7.51451 31.4433C7.60354 31.3716 7.72 31.3352 7.83826 31.3423C7.95652 31.3493 8.06689 31.3991 8.14511 31.4807L9.66723 33.0709H11.5307V31.4818L9.64818 29.9647C9.56773 29.8999 9.51539 29.8108 9.50061 29.7135C9.48585 29.6163 9.50967 29.5175 9.56775 29.435L9.60766 29.3869C9.67836 29.3132 9.77558 29.2652 9.88164 29.2517C9.98773 29.2381 10.0956 29.26 10.1855 29.3132L10.2386 29.3498L11.5313 30.3912L11.5319 28.5656C11.5319 28.476 11.5639 28.3889 11.6231 28.3175C11.6823 28.2462 11.7654 28.1947 11.8596 28.1708L11.918 28.1599L11.9787 28.156Z" fill="#96ceff"/>
</svg>
